<?xml version="1.0" standalone="no"?>
<!DOCTYPE svg PUBLIC "-//W3C//DTD SVG 20010904//EN"
 "http://www.w3.org/TR/2001/REC-SVG-20010904/DTD/svg10.dtd">
<svg version="1.0" xmlns="http://www.w3.org/2000/svg"
 width="500.000000pt" height="500.000000pt" viewBox="0 0 500.000000 500.000000"
 preserveAspectRatio="xMidYMid meet">
<metadata>
Created by potrace 1.11, written by Peter Selinger 2001-2013
</metadata>
<g transform="translate(0.000000,500.000000) scale(0.100000,-0.100000)"
fill="#000000" stroke="none">
<path d="M467 4984 c-133 -32 -261 -114 -339 -218 -60 -80 -85 -131 -109 -223
-18 -74 -19 -130 -18 -2042 1 -1621 3 -1977 14 -2029 39 -176 158 -328 320
-407 142 -69 -8 -65 2165 -65 2140 0 2022 -3 2149 55 168 77 298 240 336 420
21 101 21 3955 0 4053 -49 224 -228 403 -459 457 -90 21 -3971 21 -4059 -1z"/>
</g>
</svg>
